<?xml version="1.0" encoding="utf-8"?>
<!-- Generator: Adobe Illustrator 17.1.0, SVG Export Plug-In . SVG Version: 6.00 Build 0)  -->
<!DOCTYPE svg PUBLIC "-//W3C//DTD SVG 1.1//EN" "http://www.w3.org/Graphics/SVG/1.1/DTD/svg11.dtd">
<svg version="1.1" id="Capa_1" xmlns="http://www.w3.org/2000/svg" xmlns:xlink="http://www.w3.org/1999/xlink" x="0px" y="0px"
	 viewBox="0 0 83.4 83.4" enable-background="new 0 0 83.4 83.4" xml:space="preserve">
<g>
	<path fill="#7C7C7C" d="M82.3,39.8c-8.4-14.5-23.9-23.4-40.6-23.4c-16.7,0-32.2,9-40.6,23.4L0,41.7l1.1,1.9
		C9.5,58.1,25,67.1,41.7,67.1c16.7,0,32.2-9,40.6-23.4l1.1-1.9L82.3,39.8z M42.1,55.4c-8.2,0-14.9-6.7-14.9-14.9
		c0-8.2,6.7-14.9,14.9-14.9S57,32.3,57,40.5C57,48.7,50.3,55.4,42.1,55.4z M8.9,41.7c3.5-5.4,8.3-9.7,13.8-12.8
		c-2,3.4-3.2,7.3-3.2,11.5c0,6,2.4,11.5,6.2,15.5C19,53,13.1,48,8.9,41.7z M59.1,55.3c3.5-4,5.6-9.1,5.6-14.8c0-3.9-1-7.6-2.7-10.8
		c5,3,9.3,7.1,12.5,12C70.6,47.6,65.3,52.2,59.1,55.3z M48,40.2c0,3.5-2.8,6.3-6.3,6.3c-3.5,0-6.3-2.8-6.3-6.3
		c0-3.5,2.8-6.3,6.3-6.3C45.2,33.9,48,36.7,48,40.2z"/>
</g>
</svg>
