<?xml version="1.0" encoding="utf-8"?>
<!-- Generator: Adobe Illustrator 17.1.0, SVG Export Plug-In . SVG Version: 6.00 Build 0)  -->
<!DOCTYPE svg PUBLIC "-//W3C//DTD SVG 1.1//EN" "http://www.w3.org/Graphics/SVG/1.1/DTD/svg11.dtd">
<svg version="1.1" id="Capa_1" xmlns="http://www.w3.org/2000/svg" xmlns:xlink="http://www.w3.org/1999/xlink" x="0px" y="0px"
	 viewBox="0 0 612 612" enable-background="new 0 0 612 612" xml:space="preserve">
<g>
	<g>
		<g>
			<path fill="#7C7C7C" d="M306,580.4L306,580.4c-3.5,0-6.9-1.4-9.4-3.9L77,353.6C27.4,303.9,0,244.8,0,187.2
				c0-93,61.8-155.6,153.8-155.6c79.1,0,110.4,35.1,152.2,84.2c41.7-49,73.1-84.2,152.2-84.2c92,0,153.8,62.5,153.8,155.6
				c0,57.6-27.4,116.7-77,166.4L315.4,576.4C312.9,578.9,309.5,580.4,306,580.4z M153.8,58.1c-77.4,0-127.4,50.7-127.4,129.1
				c0,50.6,24.6,103,69.3,147.7L306,548.3L516.2,335c44.8-44.8,69.4-97.2,69.4-147.8c0-78.5-50-129.1-127.4-129.1
				c-68.4,0-93.2,29.2-134.4,77.6l-7.7,9.1c-2.5,2.9-6.2,4.6-10,4.6l0,0c-3.9,0-7.5-1.7-10-4.6l-7.7-9
				C247.1,87.3,222.2,58.1,153.8,58.1z"/>
		</g>
	</g>
</g>
</svg>
