<?xml version="1.0" encoding="utf-8"?>
<!-- Generator: Adobe Illustrator 17.1.0, SVG Export Plug-In . SVG Version: 6.00 Build 0)  -->
<!DOCTYPE svg PUBLIC "-//W3C//DTD SVG 1.1//EN" "http://www.w3.org/Graphics/SVG/1.1/DTD/svg11.dtd">
<svg version="1.1" id="레이어_1" xmlns="http://www.w3.org/2000/svg" xmlns:xlink="http://www.w3.org/1999/xlink" x="0px"
	 y="0px" viewBox="0 0 25 25" enable-background="new 0 0 25 25" xml:space="preserve">
<path fill="#7FB8C7" d="M24.9,9.5C24.9,9.1,24.6,9,24.3,9h-8.3l-2.7-7.9c-0.1-0.3-0.4-0.5-0.7-0.5c-0.4,0-0.6,0.2-0.7,0.5L9.1,9H0.8
	C0.4,9,0.2,9.1,0,9.5c-0.1,0.4,0,0.6,0.2,0.8l6.7,5.2l-2.4,8c-0.1,0.4,0,0.6,0.3,0.8c0.3,0.2,0.6,0.2,0.9,0l6.8-4.8l6.8,4.8
	c0.1,0.1,0.3,0.1,0.4,0.1c0.4,0,0.7-0.3,0.7-0.7c0-0.1,0-0.2-0.1-0.3l-2.4-7.9l6.7-5.2C25,10.1,25.1,9.8,24.9,9.5z"/>
</svg>
