<?xml version="1.0" encoding="utf-8"?>
<!-- Generator: Adobe Illustrator 17.1.0, SVG Export Plug-In . SVG Version: 6.00 Build 0)  -->
<!DOCTYPE svg PUBLIC "-//W3C//DTD SVG 1.1//EN" "http://www.w3.org/Graphics/SVG/1.1/DTD/svg11.dtd">
<svg version="1.1" id="레이어_1" xmlns="http://www.w3.org/2000/svg" xmlns:xlink="http://www.w3.org/1999/xlink" x="0px"
	 y="0px" viewBox="0 0 25 25" enable-background="new 0 0 25 25" xml:space="preserve">
<g>
	<path fill="#7C7C7C" d="M24.9,9.4c-0.1-0.3-0.4-0.5-0.7-0.5h-8.3l-2.7-7.8c-0.1-0.3-0.4-0.5-0.7-0.5c-0.4,0-0.6,0.2-0.7,0.5
		L9.1,8.9H0.8C0.4,8.9,0.2,9.1,0,9.4c-0.1,0.4,0,0.6,0.2,0.8l6.7,5.2l-2.4,8c-0.1,0.4,0,0.6,0.3,0.8c0.3,0.2,0.6,0.2,0.9,0l6.8-4.8
		l6.8,4.8c0.1,0.1,0.3,0.1,0.4,0.1c0.4,0,0.7-0.3,0.7-0.7c0-0.1,0-0.2-0.1-0.3l-2.4-7.9l6.7-5.2C25,10.1,25.1,9.8,24.9,9.4z
		 M16.7,14.6c-0.2,0.2-0.3,0.5-0.3,0.8l1.9,6.4L12.9,18c-0.3-0.2-0.6-0.2-0.8,0l-5.5,3.8l1.9-6.4c0.1-0.3,0-0.6-0.3-0.8l-5.3-4.2
		h6.7c0.3,0,0.6-0.2,0.7-0.5l2.2-6.3l2.2,6.3c0.1,0.3,0.4,0.5,0.7,0.5h6.7L16.7,14.6z"/>
</g>
</svg>
