<?xml version="1.0" encoding="utf-8"?>
<!-- Generator: Adobe Illustrator 17.1.0, SVG Export Plug-In . SVG Version: 6.00 Build 0)  -->
<!DOCTYPE svg PUBLIC "-//W3C//DTD SVG 1.1//EN" "http://www.w3.org/Graphics/SVG/1.1/DTD/svg11.dtd">
<svg version="1.1" id="레이어_1" xmlns="http://www.w3.org/2000/svg" xmlns:xlink="http://www.w3.org/1999/xlink" x="0px"
	 y="0px" viewBox="0 0 18 18" enable-background="new 0 0 18 18" xml:space="preserve">
<symbol  id="ic_x5F_search_x0D_" viewBox="0 -24 24 24">
	<g>
		<g>
			<path d="M15.5-14h-0.8l-0.3,0.3c1,1.1,1.6,2.6,1.6,4.2C16-5.9,13.1-3,9.5-3S3-5.9,3-9.5C3-13.1,5.9-16,9.5-16
				c1.6,0,3.1,0.6,4.2,1.6l0.3-0.3v-0.8l5-5l1.5,1.5L15.5-14z M9.5-14C7-14,5-12,5-9.5C5-7,7-5,9.5-5S14-7,14-9.5
				C14-12,12-14,9.5-14z"/>
		</g>
	</g>
	<polygon fill="none" points="24,-24 0,-24 0,0 24,0 	"/>
</symbol>
<use xlink:href="#ic_x5F_search_x0D_"  width="24" height="24" id="XMLID_332_" y="-24" transform="matrix(1 0 0 -1 -2.7685 -2.7533)" overflow="visible" opacity="0.54"/>
</svg>
