<?xml version="1.0" encoding="utf-8"?>
<!-- Generator: Adobe Illustrator 17.1.0, SVG Export Plug-In . SVG Version: 6.00 Build 0)  -->
<!DOCTYPE svg PUBLIC "-//W3C//DTD SVG 1.1//EN" "http://www.w3.org/Graphics/SVG/1.1/DTD/svg11.dtd">
<svg version="1.1" id="레이어_1" xmlns="http://www.w3.org/2000/svg" xmlns:xlink="http://www.w3.org/1999/xlink" x="0px"
	 y="0px" viewBox="0 0 320.2 42" enable-background="new 0 0 320.2 42" xml:space="preserve">
<g>
	<g>
		<path fill="#404037" d="M42.3,11.6H14.1c-0.7,0-1.2,0.1-1.5,0.2c-0.4,0.1-0.7,0.3-0.9,0.6c-0.5,0.5-0.8,1.2-0.8,2
			c0,0.9,0.3,1.6,1,2.1c0.2,0.2,0.5,0.3,0.8,0.4c0.3,0.1,0.8,0.1,1.4,0.1h17.3c2.2,0,4.1,0.3,5.6,1c1.5,0.6,2.8,1.5,3.9,2.6
			c1,1.1,1.9,2.3,2.5,3.7c0.6,1.4,0.9,2.9,0.9,4.4c0,1.4-0.3,2.8-0.8,4.1c-0.5,1.3-1.2,2.5-2.1,3.5c-1.1,1.2-2.4,2.2-4,3
			c-1.6,0.7-3.6,1.1-5.9,1.1H0.9V30.4h28.6c0.8,0,1.4-0.1,1.9-0.3c0.4-0.2,0.8-0.4,1.1-0.7c0.4-0.5,0.6-1.1,0.6-1.8
			c0-0.9-0.3-1.5-0.8-2.1c-0.3-0.3-0.6-0.5-1-0.7c-0.4-0.1-1-0.2-1.8-0.2h-16c-2.6,0-4.8-0.3-6.4-1c-1.6-0.6-2.9-1.5-4-2.6
			c-1-1.1-1.9-2.3-2.4-3.7c-0.6-1.4-0.9-2.9-0.9-4.5c0-1.6,0.3-3.1,0.9-4.5s1.4-2.6,2.5-3.7c1-1.1,2.4-1.9,4-2.6
			c1.6-0.6,3.7-1,6.3-1h28.8V11.6z"/>
		<path fill="#404037" d="M88.5,1.2v10.4H58.6c-0.6,0-0.9,0.3-0.9,1v4.5h30.6v7.6H57.7v4.8c0,0.7,0.3,1,0.9,1h29.9v10.1H52.7
			c-3.7,0-5.5-1.8-5.5-5.5V6.5c0-3.5,1.9-5.3,5.6-5.3H88.5z"/>
		<path fill="#404037" d="M104.8,40.5c-2.4,0-4.4-0.3-6.1-0.8c-1.6-0.5-3-1.3-4-2.4c-1-1.1-1.7-2.4-2.1-4c-0.4-1.6-0.6-3.5-0.6-5.6
			V1.2h10.6v25.5c0,1.4,0.2,2.4,0.7,2.9c0.5,0.5,1.4,0.8,2.8,0.8h27.3v10.1H104.8z"/>
		<path fill="#404037" d="M164.9,1.2c2.8,0,5.1,0.4,7,1.1c1.9,0.8,3.5,1.8,4.8,3.1c1.4,1.4,2.4,2.9,3.2,4.8c0.8,1.8,1.2,3.7,1.2,5.7
			c0,1.7-0.3,3.4-0.9,5c-0.6,1.6-1.4,3.1-2.5,4.4c-1.4,1.6-3.1,2.9-5.1,3.9c-2.1,0.9-4.6,1.4-7.6,1.4h-18.1v9.9h-10.5V3.7
			c0-1.6,0.9-2.4,2.6-2.4H164.9z M165.1,21c1.2,0,2.1-0.2,2.8-0.5c0.7-0.3,1.3-0.8,1.7-1.4c0.6-0.8,0.9-1.7,0.9-2.8
			c0-1.1-0.3-2.1-1-3c-0.4-0.5-1-1-1.7-1.3c-0.7-0.3-1.6-0.5-2.8-0.5h-17.5c-0.5,0-0.8,0.3-0.8,0.8V21H165.1z"/>
		<path fill="#404037" d="M272,11.6h-28.2c-0.7,0-1.2,0.1-1.5,0.2c-0.4,0.1-0.7,0.3-0.9,0.6c-0.5,0.5-0.8,1.2-0.8,2
			c0,0.9,0.3,1.6,1,2.1c0.2,0.2,0.5,0.3,0.8,0.4c0.3,0.1,0.8,0.1,1.4,0.1H261c2.2,0,4.1,0.3,5.6,1c1.5,0.6,2.8,1.5,3.9,2.6
			c1,1.1,1.9,2.3,2.5,3.7c0.6,1.4,0.9,2.9,0.9,4.4c0,1.4-0.3,2.8-0.8,4.1c-0.5,1.3-1.2,2.5-2.1,3.5c-1.1,1.2-2.4,2.2-4,3
			c-1.6,0.7-3.6,1.1-5.9,1.1h-30.4V30.4h28.6c0.8,0,1.4-0.1,1.9-0.3c0.4-0.2,0.8-0.4,1.1-0.7c0.4-0.5,0.6-1.1,0.6-1.8
			c0-0.9-0.3-1.5-0.8-2.1c-0.3-0.3-0.6-0.5-1-0.7c-0.4-0.1-1-0.2-1.8-0.2h-16c-2.6,0-4.8-0.3-6.4-1c-1.6-0.6-2.9-1.5-4-2.6
			c-1-1.1-1.9-2.3-2.4-3.7c-0.6-1.4-0.9-2.9-0.9-4.5c0-1.6,0.3-3.1,0.9-4.5s1.4-2.6,2.5-3.7c1-1.1,2.4-1.9,4-2.6
			c1.6-0.6,3.7-1,6.3-1H272V11.6z"/>
		<path fill="#404037" d="M320.2,1.2v10.4H303v28.9h-10.6V11.6h-17.3V1.2H320.2z"/>
	</g>
	<g>
		<g>
			<g>
				<g>
					<path fill="#404037" d="M205.5,42c-11.6,0-21-9.4-21-21s9.4-21,21-21s21,9.4,21,21S217,42,205.5,42z M205.5,8
						c-7.2,0-13,5.8-13,13s5.8,13,13,13c7.2,0,13-5.8,13-13S212.6,8,205.5,8z"/>
				</g>
			</g>
			<g>
				<g>
					<g>
						<path fill="#404037" d="M223,20.8c0-0.5,0-1-0.1-1.5c-0.2-1.6-0.5-3.2-1.1-4.6c0-0.1-0.1-0.2-0.1-0.3
							c-0.8-1.8-1.9-3.5-3.2-4.9c-0.1-0.1-0.2-0.2-0.3-0.3c-0.3-0.3-0.5-0.5-0.8-0.8c-3-2.8-7-4.4-11.4-4.4c-4.4,0-8.5,1.7-11.5,4.5
							c-0.7,0.7-1.4,1.4-1.9,2.1c-2.2,2.9-3.5,6.5-3.5,10.4c0,9.2,7.4,16.7,16.5,17l2.1-0.1c5.9-0.5,11-4.1,13.6-9.2
							c0.6-1.2,1.1-2.4,1.4-3.7c0.1-0.3,0.2-0.7,0.2-1c0.2-1,0.3-2,0.3-3C223,20.9,223,20.9,223,20.8L223,20.8z M219.8,14l0.1-0.1
							c0.1,0.3,0.3,0.5,0.4,0.8l-0.2,0l-0.3,0V14z M217.3,11.1l0-0.8c0.3,0.3,0.5,0.6,0.8,0.9l-0.3,0.5l-1.1,0l-0.1-0.2L217.3,11.1z
							 M196.8,9.2L196.8,9.2l0.3,0l0-0.1h0.6v0.2l-0.2,0.2h-0.8V9.2z M197.7,10.2l-0.8,0l-0.1-0.2l0.5-0.2c0,0,0.3-0.1,0.4-0.1
							C197.7,9.9,197.7,10.2,197.7,10.2L197.7,10.2z M220.8,16.7h-1.2l-0.8-0.6l-0.8,0.1v0.5h-0.3l-0.3-0.2l-1.4-0.4v-0.9l-1.7,0.1
							l-0.5,0.3h-0.7l-0.3,0l-0.8,0.5V17l-1.7,1.2l0.1,0.5h0.4l-0.1,0.5l-0.2,0.1l0,1.3l1.5,1.7h0.6l0-0.1h1.2l0.3-0.3h0.7l0.4,0.4
							l1,0.1l-0.1,1.3l1.1,1.9l-0.6,1.1l0,0.5l0.5,0.5V29l0.6,0.8v1h0.5c-2.9,3.5-7.2,5.8-12.1,5.8c-8.6,0-15.6-7-15.6-15.6
							c0-2.2,0.4-4.2,1.2-6.1v0.9l0.6,0.3v1.2l0.6,1.1l0.5,0.1l0.1-0.4l-0.6-0.9l-0.1-0.9h0.4l0.1,0.9l0.9,1.3l-0.2,0.4l0.5,0.8
							l1.4,0.3v-0.2l0.5,0.1l-0.1,0.4l0.4,0.1l0.7,0.2l0.9,1.1l1.2,0.1l0.1,1l-0.8,0.6l0,0.9l-0.1,0.5l1.2,1.5l0.1,0.5
							c0,0,0.4,0.1,0.5,0.1c0.1,0,1,0.7,1,0.7v2.7l0.3,0.1l-0.2,1.2l0.5,0.7l-0.1,1.2l0.7,1.3l0.9,0.8l0.9,0l0.1-0.3l-0.7-0.6l0-0.3
							l0.1-0.3l0-0.4l-0.5,0l-0.2-0.3l0.4-0.4l0.1-0.3l-0.4-0.1l0-0.3l0.6-0.1l0.9-0.4l0.3-0.6l1-1.2l-0.2-1l0.3-0.5l0.9,0l0.6-0.5
							l0.2-1.9l0.7-0.8l0.1-0.5l-0.6-0.2l-0.4-0.7l-1.4,0l-1.1-0.4l-0.1-0.8l-0.4-0.6l-1,0l-0.6-0.9l-0.5-0.2l0,0.3l-0.9,0.1
							l-0.3-0.5l-1-0.2l-0.8,0.9l-1.2-0.2l-0.1-1.4l-0.9-0.2l0.4-0.7l-0.1-0.4l-1.2,0.8l-0.8-0.1l-0.3-0.6l0.2-0.6l0.4-0.8l1-0.5
							l1.8,0l0,0.6l0.7,0.3l-0.1-1l0.5-0.5l1-0.6l0.1-0.4l1-1l1-0.6l-0.1-0.1l0.7-0.6l0.3,0.1l0.1,0.1l0.3-0.3l0.1,0l-0.3,0
							l-0.3-0.1v-0.3l0.2-0.1h0.3l0.2,0.1l0.1,0.3l0.2,0v0l0,0l0.5-0.1l0.1-0.2l0.3,0.1v0.3l-0.3,0.2h0l0,0.3l0.9,0.3l0,0l0.2,0
							l0-0.4l-0.7-0.3l0-0.2l0.6-0.2l0-0.5l-0.6-0.4l0-0.9l-0.8,0.4h-0.3l0.1-0.7l-1.1-0.3l-0.5,0.3v1.1l-0.8,0.3l-0.3,0.7l-0.4,0.1
							v-0.9l-0.8-0.1l-0.4-0.3l-0.2-0.6l1.4-0.8l0.7-0.2l0.1,0.5l0.4,0l0-0.2l0.4-0.1l0-0.1L203,9.4l0-0.2l0.5,0l0.3-0.3l0,0h0
							l0.1-0.1l1-0.1l0.5,0.4l-1.2,0.6l1.5,0.4l0.2-0.5h0.7l0.2-0.4l-0.5-0.1V8.3l-1.5-0.6l-1,0.1l-0.6,0.3l0,0.7l-0.6-0.1l-0.1-0.4
							l0.6-0.5l-1-0.1l-0.3,0.1l-0.1,0.3l0.4,0.1L202,8.7l-0.7,0L201.3,9l-1,0c0,0,0-0.5-0.1-0.5s0.8,0,0.8,0l0.6-0.6l-0.3-0.2
							l-0.4,0.4l-0.7,0l-0.4-0.6h-0.9l-0.9,0.7h0.8l0.1,0.2l-0.2,0.2l0.9,0l0.1,0.3l-1.1,0l-0.1-0.3l-0.7-0.1l-0.3-0.2l-0.8,0
							c2.6-1.9,5.7-3,9.2-3c3.9,0,7.5,1.5,10.3,3.9l-0.2,0.3l-0.7,0.3l-0.3,0.3l0.1,0.4l0.4,0.1l0.2,0.6l0.6-0.3l0.1,0.7h-0.2
							l-0.5-0.1l-0.6,0.1l-0.6,0.8l-0.8,0.1l-0.1,0.7l0.3,0.1l-0.1,0.4l-0.8-0.2l-0.7,0.2l-0.2,0.4l0.1,0.9l0.4,0.2l0.7,0l0.5,0
							l0.2-0.4l0.8-1l0.5,0.1l0.5-0.4l0.1,0.3l1.2,0.8l-0.1,0.2l-0.5,0l0.2,0.3l0.3,0.1l0.4-0.2l0-0.5l0.2-0.1l-0.1-0.1l-0.8-0.5
							l-0.2-0.6h0.7l0.2,0.2l0.6,0.5l0,0.6l0.6,0.6l0.2-0.9l0.4-0.2l0.1,0.7l0.4,0.4l0.8,0C220.7,15.8,220.8,16.2,220.8,16.7
							L220.8,16.7z M198.2,11.7l0.4-0.2l0.4,0.1l-0.1,0.5l-0.4,0.1L198.2,11.7z M200.4,12.9v0.3h-0.9l-0.3-0.1l0.1-0.2l0.4-0.2h0.6
							v0.2H200.4z M200.8,13.3v0.3l-0.2,0.2l-0.3,0.1v-0.5H200.8z M200.6,13.2v-0.4l0.3,0.3L200.6,13.2z M200.7,13.9v0.3l-0.2,0.2
							H200l0.1-0.3l0.2,0l0-0.1L200.7,13.9z M199.5,13.3h0.5l-0.7,0.9l-0.3-0.1l0.1-0.4L199.5,13.3z M201.6,13.8v0.3h-0.5l-0.1-0.2
							v-0.3h0L201.6,13.8z M201.1,13.4l0.1-0.1l0.2,0.1l-0.2,0.2L201.1,13.4z M201.1,13.4"/>
					</g>
				</g>
			</g>
		</g>
	</g>
</g>
</svg>
