<?xml version="1.0" encoding="utf-8"?>
<!-- Generator: Adobe Illustrator 17.1.0, SVG Export Plug-In . SVG Version: 6.00 Build 0)  -->
<!DOCTYPE svg PUBLIC "-//W3C//DTD SVG 1.1//EN" "http://www.w3.org/Graphics/SVG/1.1/DTD/svg11.dtd">
<svg version="1.1" id="레이어_1" xmlns="http://www.w3.org/2000/svg" xmlns:xlink="http://www.w3.org/1999/xlink" x="0px"
	 y="0px" viewBox="0 0 18 18" enable-background="new 0 0 18 18" xml:space="preserve">
<g enable-background="new    ">
	<path fill="#383838" d="M0.1,13V4.9H5v0.7v0.7H1.5V8h3.2v0.7v0.7H1.5v2.1h3.7v0.7V13H0.1z"/>
	<path fill="#383838" d="M7.7,6.3h-2V5.6V4.9h5.4v0.7v0.7h-2V13H8.4H7.7V6.3z"/>
	<path fill="#383838" d="M17.6,10.2c-0.1,0.9-0.4,1.6-0.9,2.2c-0.5,0.5-1.2,0.8-1.9,0.8c-0.9,0-1.7-0.4-2.3-1.2
		c-0.6-0.8-0.8-1.8-0.8-3.1c0-1.3,0.3-2.3,0.8-3.1C13,5,13.8,4.6,14.7,4.6c0.8,0,1.4,0.3,1.9,0.8c0.5,0.5,0.8,1.2,0.9,2.1h-1.4
		c0-0.4-0.2-0.8-0.5-1.1c-0.3-0.3-0.6-0.4-1-0.4c-0.5,0-0.9,0.3-1.2,0.8C13.2,7.4,13,8,13,8.9c0,0.9,0.2,1.5,0.5,2.1
		c0.3,0.5,0.7,0.8,1.2,0.8c0.4,0,0.7-0.1,1-0.4c0.3-0.3,0.4-0.7,0.5-1.1H17.6z"/>
</g>
</svg>
