<?xml version="1.0" encoding="utf-8"?>
<!-- Generator: Adobe Illustrator 17.1.0, SVG Export Plug-In . SVG Version: 6.00 Build 0)  -->
<!DOCTYPE svg PUBLIC "-//W3C//DTD SVG 1.1//EN" "http://www.w3.org/Graphics/SVG/1.1/DTD/svg11.dtd">
<svg version="1.1" id="레이어_1" xmlns="http://www.w3.org/2000/svg" xmlns:xlink="http://www.w3.org/1999/xlink" x="0px"
	 y="0px" viewBox="0 0 18 18" enable-background="new 0 0 18 18" xml:space="preserve">
<g>
	<g>
		<path fill="#383838" d="M9,10.3c-3.7,0-6.7-1.3-7.5-3.1C1.4,7.5,1.4,7.7,1.4,8c0,2.2,3.4,3.9,7.6,3.9c4.2,0,7.6-1.8,7.6-3.9
			c0-0.3-0.1-0.5-0.2-0.8C15.7,9,12.7,10.3,9,10.3L9,10.3z M9,10.3"/>
		<path fill="#383838" d="M9,13.1c-3.7,0-6.7-1.3-7.5-3.1c-0.1,0.3-0.2,0.5-0.2,0.8c0,2.2,3.4,3.9,7.6,3.9c4.2,0,7.6-1.8,7.6-3.9
			c0-0.3-0.1-0.6-0.2-0.8C15.7,11.8,12.7,13.1,9,13.1L9,13.1z M9,13.1"/>
		<path fill="#383838" d="M9,16.1c-3.7,0-6.7-1.3-7.5-3.1c-0.1,0.3-0.2,0.5-0.2,0.8c0,2.2,3.4,3.9,7.6,3.9c4.2,0,7.6-1.8,7.6-3.9
			c0-0.3-0.1-0.6-0.2-0.8C15.7,14.7,12.7,16.1,9,16.1L9,16.1z M9,16.1"/>
		<path fill="#383838" d="M16.6,5.1c0,2.2-3.4,3.9-7.6,3.9c-4.2,0-7.6-1.8-7.6-3.9C1.4,3,4.8,1.2,9,1.2C13.2,1.2,16.6,3,16.6,5.1
			L16.6,5.1z M16.6,5.1"/>
	</g>
</g>
</svg>
