<?xml version="1.0" encoding="utf-8"?>
<!-- Generator: Adobe Illustrator 17.1.0, SVG Export Plug-In . SVG Version: 6.00 Build 0)  -->
<!DOCTYPE svg PUBLIC "-//W3C//DTD SVG 1.1//EN" "http://www.w3.org/Graphics/SVG/1.1/DTD/svg11.dtd">
<svg version="1.1" id="레이어_1" xmlns="http://www.w3.org/2000/svg" xmlns:xlink="http://www.w3.org/1999/xlink" x="0px"
	 y="0px" viewBox="0 0 18 18" enable-background="new 0 0 18 18" xml:space="preserve">
<g>
	<g>
		<path fill="#383838" d="M10.9,4c0.8,0.5,1.4,1.4,1.5,2.4c0.3,0.2,0.7,0.2,1.1,0.2c1.5,0,2.6-1.2,2.6-2.6c0-1.5-1.2-2.6-2.6-2.6
			C12,1.4,10.9,2.6,10.9,4L10.9,4z M9.1,9.4c1.5,0,2.6-1.2,2.6-2.6c0-1.5-1.2-2.6-2.6-2.6c-1.5,0-2.6,1.2-2.6,2.6
			C6.5,8.2,7.7,9.4,9.1,9.4L9.1,9.4z M10.2,9.6H8c-1.9,0-3.4,1.5-3.4,3.4v2.7l0,0l0.2,0.1c1.8,0.6,3.3,0.7,4.6,0.7
			c2.5,0,3.9-0.7,4-0.8l0.2-0.1h0V13C13.6,11.1,12.1,9.6,10.2,9.6L10.2,9.6z M14.6,6.9h-2.2c0,0.9-0.4,1.7-1,2.3
			c1.7,0.5,2.9,2,2.9,3.8v0.8c2.2-0.1,3.5-0.7,3.5-0.7L18,13h0v-2.7C18,8.4,16.5,6.9,14.6,6.9L14.6,6.9z M4.5,6.7
			c0.5,0,1-0.2,1.4-0.4C6,5.4,6.5,4.7,7.1,4.2c0,0,0-0.1,0-0.1c0-1.5-1.2-2.6-2.6-2.6c-1.5,0-2.6,1.2-2.6,2.6
			C1.9,5.5,3.1,6.7,4.5,6.7L4.5,6.7z M6.9,9.1c-0.6-0.6-1-1.4-1-2.2c-0.1,0-0.2,0-0.2,0H3.4C1.5,6.9,0,8.4,0,10.2V13l0,0l0.2,0.1
			c1.4,0.4,2.7,0.6,3.8,0.7V13C4,11.2,5.2,9.6,6.9,9.1L6.9,9.1z M6.9,9.1"/>
	</g>
</g>
</svg>
