<?xml version="1.0" encoding="utf-8"?>
<!-- Generator: Adobe Illustrator 17.1.0, SVG Export Plug-In . SVG Version: 6.00 Build 0)  -->
<!DOCTYPE svg PUBLIC "-//W3C//DTD SVG 1.1//EN" "http://www.w3.org/Graphics/SVG/1.1/DTD/svg11.dtd">
<svg version="1.1" id="레이어_1" xmlns="http://www.w3.org/2000/svg" xmlns:xlink="http://www.w3.org/1999/xlink" x="0px"
	 y="0px" viewBox="0 0 18 18" enable-background="new 0 0 18 18" xml:space="preserve">
<g>
	<g>
		<path fill="#383838" d="M9,17.9c-4.9,0-8.9-4-8.9-8.9s4-8.9,8.9-8.9s8.9,4,8.9,8.9S13.9,17.9,9,17.9z M9,1.2
			C4.7,1.2,1.2,4.7,1.2,9s3.5,7.8,7.8,7.8s7.8-3.5,7.8-7.8S13.3,1.2,9,1.2z"/>
	</g>
	<path fill="#383838" d="M4.1,9c0-1.2,0.4-2.2,1-3.1C5,5.5,4.9,5.1,4.9,4.8C3.8,5.9,3.2,7.4,3.2,9c0,2.1,1,3.9,2.6,5l0.6-0.7
		C5,12.4,4.1,10.8,4.1,9z"/>
	<path fill="#383838" d="M5.3,9c0-0.6,0.1-1.2,0.4-1.7C5.5,7,5.3,6.6,5.2,6.2C4.7,7,4.3,8,4.3,9c0,1.7,0.9,3.2,2.2,4.1l0.6-0.7
		C6,11.7,5.3,10.5,5.3,9z"/>
	<path fill="#383838" d="M6.4,9c0-0.2,0-0.4,0.1-0.6C6.2,8.1,6,7.8,5.8,7.5C5.6,8,5.5,8.5,5.5,9c0,1.4,0.7,2.6,1.8,3.2l0.6-0.7
		C7,11,6.4,10.1,6.4,9z"/>
	<path fill="#383838" d="M5.2,4.1c0,0.8,0.2,2.6,1.3,3.9L7,7.3c0,0-1.3-1.4-0.6-4.3c0-0.1,0.1-0.3,0.1-0.4L6.6,2
		C3.8,3.1,1.8,5.8,1.8,9c0,2.5,1.2,4.7,3.1,6.1l0.7-0.8C4,13.1,2.9,11.2,2.9,9C2.9,7,3.8,5.3,5.2,4.1z"/>
	<path fill="#383838" d="M14,9c0-1.2-0.4-2.2-1-3.1c0.1-0.4,0.2-0.8,0.2-1.2C14.3,5.9,15,7.4,15,9c0,2.1-1,3.9-2.6,5l-0.6-0.7
		C13.1,12.4,14,10.8,14,9z"/>
	<path fill="#383838" d="M12.9,9c0-0.6-0.1-1.2-0.4-1.7c0.2-0.3,0.3-0.7,0.4-1.1C13.5,7,13.8,8,13.8,9c0,1.7-0.9,3.2-2.2,4.1
		L11,12.4C12.1,11.7,12.9,10.5,12.9,9z"/>
	<path fill="#383838" d="M11.8,9c0-0.2,0-0.4-0.1-0.6c0.3-0.3,0.5-0.6,0.7-0.9c0.2,0.5,0.3,1,0.3,1.5c0,1.4-0.7,2.6-1.8,3.2
		l-0.6-0.7C11.2,11,11.8,10.1,11.8,9z"/>
	<path fill="#383838" d="M12.9,4.1c0,0.8-0.2,2.6-1.3,3.9l-0.4-0.7c0,0,1.3-1.4,0.6-4.3c0-0.1-0.1-0.3-0.1-0.4L11.6,2
		c2.8,1.1,4.8,3.8,4.8,7c0,2.5-1.2,4.7-3.1,6.1l-0.7-0.8c1.6-1.2,2.7-3.1,2.7-5.2C15.2,7,14.3,5.3,12.9,4.1z"/>
	<path fill="#383838" d="M10.5,16l1.6-1.6l-1.3-1.6l-0.4-0.1l-0.1-0.2l-0.4-1.2c0.6-0.3,1.1-0.8,1.3-1.5c0.3-1-0.1-2.1-0.1-2.1
		l-0.5-0.2L9.9,7L9.8,6L11,5.2l0-1L9.9,4.3L8.4,4.6L6.6,6.3l0.8,0.5l1.1-0.5l0,0.5L7.9,7.3L7.2,7.6c0,0-0.4,0.7-0.4,1.7c0,0,0,0,0,0
		c0,0,0,0.1,0,0.1c0,0,0,0,0,0c0,0.4,0.1,0.7,0.3,1c0,0,0,0,0,0c0,0,0,0,0,0c0,0,0,0,0,0c0,0.1,0.1,0.1,0.1,0.1
		c0.2,0.3,0.5,0.5,0.9,0.7l-0.4,1.4l-0.4,0.1L6,14.4c0,0-0.1,0.1-0.1,0.1c0,0,1.6,1.5,1.6,1.5l1.1-4.5c0,0,0.1,0.1,0.2,0.1l-0.2,2
		l-0.3,0.7l-0.5,1.9L9,16.5l1.1-0.3l-0.3-1.9l-0.2-0.7l-0.2-2.1c0,0,0.1,0,0.1,0L10.5,16z M8.3,5.8L8.2,5.6L9,5.1v0.5L8.3,5.8z
		 M9.5,15.2c0,0.3-0.2,0.5-0.5,0.5c-0.3,0-0.5-0.2-0.5-0.5c0-0.3,0.2-0.5,0.5-0.5C9.3,14.7,9.5,15,9.5,15.2z"/>
</g>
</svg>
