<?xml version="1.0" encoding="utf-8"?>
<!-- Generator: Adobe Illustrator 17.1.0, SVG Export Plug-In . SVG Version: 6.00 Build 0)  -->
<!DOCTYPE svg PUBLIC "-//W3C//DTD SVG 1.1//EN" "http://www.w3.org/Graphics/SVG/1.1/DTD/svg11.dtd">
<svg version="1.1" id="레이어_1" xmlns="http://www.w3.org/2000/svg" xmlns:xlink="http://www.w3.org/1999/xlink" x="0px"
	 y="0px" viewBox="0 0 18 18" enable-background="new 0 0 18 18" xml:space="preserve">
<g>
	<path fill="#383838" d="M15.7,0H2.3v18h13.5c0,0,0,0,0,0V0z M14.4,16.6H3.6V1.4h10.7V16.6z M14.4,16.6"/>
	<path fill="#383838" d="M5,10.6v3.6h1.4V9.7l-0.9,0.9c-0.1,0.1-0.2,0.1-0.3,0.1C5.1,10.7,5,10.6,5,10.6L5,10.6z M5,10.6"/>
	<path fill="#383838" d="M7.3,8.7v5.4h1.4v-5L7.8,8.3L7.3,8.7z M7.3,8.7"/>
	<path fill="#383838" d="M9.7,14.2h1.4V8.3L9.7,9.7V14.2z M9.7,11.9"/>
	<path fill="#383838" d="M12,7.3v6.9h1.4V7.7l-0.9-0.9L12,7.3z M12,7.3"/>
	<path fill="#383838" d="M4.9,9.7C5,9.8,5.1,9.9,5.2,9.9c0.1,0,0.3-0.1,0.4-0.1l2.2-2.2L9,8.7c0.1,0.1,0.3,0.2,0.5,0.2
		c0.2,0,0.3-0.1,0.5-0.2l2.7-2.7L13,6.5c0.1,0.1,0.2,0.1,0.3,0.1c0.1,0,0.1-0.1,0.1-0.2l0-1.5c0-0.1,0-0.2-0.1-0.3
		c-0.1-0.1-0.2-0.1-0.3-0.1h-1.5c-0.1,0-0.2,0.1-0.2,0.1c0,0.1,0,0.2,0.1,0.3l0.4,0.4L9.8,7C9.7,7.1,9.6,7.2,9.4,7.2
		C9.3,7.2,9.2,7.1,9.1,7L7.8,5.7L4.7,8.8C4.5,9,4.5,9.4,4.7,9.6L4.9,9.7z M4.9,9.7"/>
</g>
</svg>
